<?xml version="1.0" encoding="utf-8"?>
<!-- Generator: Adobe Illustrator 27.2.0, SVG Export Plug-In . SVG Version: 6.00 Build 0)  -->
<svg version="1.1" id="Layer_1" xmlns="http://www.w3.org/2000/svg" xmlns:xlink="http://www.w3.org/1999/xlink" x="0px" y="0px"
	 viewBox="0 0 874 68.7" style="enable-background:new 0 0 874 68.7;" xml:space="preserve">
<style type="text/css">
	.st0{fill:#40403F;}
	.st1{fill:#FFFFFF;}
	.st2{fill:#CBD8DD;}
	.st3{fill:#DDE5E8;}
	.st4{opacity:6.000000e-02;}
	.st5{fill:#17292D;}
	.st6{fill:#82BB42;}
	.st7{fill:#82BB43;}
	.st8{fill:#83BC43;}
	.st9{fill:#5DA344;}
	.st10{fill:#437D3B;}
	.st11{fill:#B7D990;}
	.st12{fill:#336E36;}
	.st13{fill:#FCFDFC;}
	.st14{fill:#F8FBF6;}
</style>
<path class="st0" d="M330.3,31.4v2.8c0,0.5,0.4,0.9,0.9,0.9h41.4c0.5,0,0.9,0.4,0.9,0.9v4.1c0,0.7,0.8,1.1,1.4,0.7l9.1-7.3
	c0.4-0.3,0.4-1,0-1.4l-9.1-7.3c-0.6-0.5-1.4-0.1-1.4,0.7v4.1c0,0.5-0.4,0.9-0.9,0.9h-41.4C330.7,30.5,330.3,30.9,330.3,31.4z"/>
<path class="st0" d="M282.6,50.3H116.1c-3.5,0-6.3-2.8-6.3-6.3V20.2c0-3.5,2.8-6.3,6.3-6.3h166.4c3.5,0,6.3,2.8,6.3,6.3V44
	C288.9,47.4,286,50.3,282.6,50.3z"/>
<g>
	<path class="st1" d="M155.3,37.2V24.3h3.4l2.7,4.7c0.8,1.4,1.5,3,2.1,4.4l0,0c-0.2-1.7-0.2-3.5-0.2-5.4v-3.8h2.7v12.9h-3.1l-2.8-5
		c-0.8-1.4-1.6-3-2.2-4.6h-0.1c0.1,1.7,0.1,3.5,0.1,5.7v3.9L155.3,37.2L155.3,37.2z"/>
	<path class="st1" d="M170.7,33.4c0.1,1.2,1.3,1.8,2.6,1.8c1,0,1.8-0.1,2.6-0.4l0.4,2c-1,0.4-2.1,0.6-3.4,0.6c-3.2,0-5-1.8-5-4.8
		c0-2.4,1.5-5,4.7-5c3,0,4.2,2.4,4.2,4.7c0,0.5-0.1,0.9-0.1,1.2L170.7,33.4L170.7,33.4z M174.1,31.4c0-0.7-0.3-1.9-1.6-1.9
		c-1.2,0-1.7,1.1-1.8,1.9H174.1z"/>
	<path class="st1" d="M180.5,27.8l0.8,3.9c0.2,1,0.4,2,0.5,3.1h0.1c0.2-1.1,0.5-2.1,0.7-3l1-3.9h2.3l0.9,3.7
		c0.3,1.1,0.5,2.1,0.7,3.2l0,0c0.1-1.1,0.3-2.1,0.6-3.2l0.8-3.7h2.9l-2.9,9.4H186l-0.9-3.3c-0.2-0.9-0.4-1.8-0.6-2.9l0,0
		c-0.2,1.2-0.4,2.1-0.6,2.9l-0.9,3.3h-2.7l-2.7-9.4L180.5,27.8L180.5,27.8z"/>
	<path class="st1" d="M206.5,36.8c-0.5,0.2-1.7,0.6-3.3,0.6c-4.5,0-6.8-2.8-6.8-6.5c0-4.4,3.1-6.8,7.1-6.8c1.5,0,2.7,0.3,3.2,0.6
		L206,27c-0.6-0.2-1.4-0.5-2.5-0.5c-2.3,0-4.1,1.4-4.1,4.3c0,2.6,1.5,4.2,4.1,4.2c0.9,0,1.9-0.2,2.5-0.4L206.5,36.8z"/>
	<path class="st1" d="M216.8,34.2c0,1.2,0,2.2,0.1,3h-2.5l-0.1-1.3h-0.1c-0.4,0.6-1.2,1.5-2.9,1.5c-1.9,0-3.3-1.2-3.3-4.1v-5.5h2.9
		v5c0,1.4,0.4,2.2,1.5,2.2c0.8,0,1.3-0.6,1.5-1c0.1-0.2,0.1-0.4,0.1-0.6v-5.6h2.9L216.8,34.2L216.8,34.2z"/>
	<path class="st1" d="M219.1,34.7c0.5,0.3,1.7,0.7,2.5,0.7c0.9,0,1.2-0.3,1.2-0.8s-0.3-0.7-1.4-1.1c-2-0.7-2.7-1.7-2.7-2.8
		c0-1.8,1.5-3.1,3.8-3.1c1.1,0,2.1,0.3,2.6,0.6l-0.5,2c-0.4-0.2-1.2-0.5-2-0.5c-0.7,0-1.1,0.3-1.1,0.7c0,0.4,0.4,0.7,1.5,1.1
		c1.8,0.6,2.5,1.5,2.5,2.9c0,1.8-1.4,3-4,3c-1.2,0-2.3-0.3-3-0.7L219.1,34.7z"/>
	<path class="st1" d="M230.7,25.3v2.6h2.1V30h-2.1v3.4c0,1.1,0.3,1.6,1.2,1.6c0.4,0,0.6,0,0.9-0.1v2.2c-0.4,0.1-1.1,0.2-1.9,0.2
		c-0.9,0-1.7-0.3-2.2-0.8c-0.5-0.6-0.8-1.5-0.8-2.8V30h-1.2v-2.1h1.2v-1.8L230.7,25.3z"/>
	<path class="st1" d="M238.7,37.4c-2.7,0-4.9-1.8-4.9-4.8s2-5,5-5c2.9,0,4.8,2,4.8,4.8C243.6,35.8,241.2,37.4,238.7,37.4L238.7,37.4
		z M238.8,35.3c1.2,0,1.9-1.1,1.9-2.8c0-1.4-0.5-2.8-1.9-2.8s-1.9,1.4-1.9,2.8C236.8,34.1,237.5,35.3,238.8,35.3L238.8,35.3z"/>
	<path class="st1" d="M245.4,30.8c0-1.2,0-2.1-0.1-3h2.5l0.1,1.3h0.1c0.4-0.6,1.2-1.5,2.8-1.5c1.2,0,2.2,0.6,2.6,1.6l0,0
		c0.4-0.5,0.8-0.9,1.2-1.2c0.5-0.3,1.1-0.5,1.8-0.5c1.8,0,3.2,1.3,3.2,4.1v5.5h-2.8V32c0-1.4-0.4-2.1-1.4-2.1c-0.7,0-1.2,0.5-1.4,1
		c-0.1,0.2-0.1,0.5-0.1,0.7v5.5h-2.8v-5.3c0-1.2-0.4-2-1.4-2c-0.7,0-1.2,0.6-1.4,1c-0.1,0.2-0.1,0.5-0.1,0.7v5.4h-2.8L245.4,30.8
		L245.4,30.8z"/>
	<path class="st1" d="M264.2,33.4c0.1,1.2,1.3,1.8,2.6,1.8c1,0,1.8-0.1,2.6-0.4l0.4,2c-1,0.4-2.1,0.6-3.4,0.6c-3.2,0-5-1.8-5-4.8
		c0-2.4,1.5-5,4.7-5c3,0,4.2,2.4,4.2,4.7c0,0.5-0.1,0.9-0.1,1.2L264.2,33.4L264.2,33.4z M267.6,31.4c0-0.7-0.3-1.9-1.6-1.9
		c-1.2,0-1.7,1.1-1.8,1.9H267.6z"/>
	<path class="st1" d="M272.1,30.9c0-1.4,0-2.3-0.1-3.1h2.5l0.1,1.7h0.1c0.5-1.4,1.6-2,2.5-2c0.3,0,0.4,0,0.6,0.1v2.7
		c-0.2,0-0.5-0.1-0.8-0.1c-1.1,0-1.8,0.6-2,1.5c0,0.2-0.1,0.4-0.1,0.7v4.7H272L272.1,30.9L272.1,30.9z"/>
</g>
<g>
	<path class="st2" d="M132.6,37h-4.2c-6.2,0-11.2,5-11.2,11.2l0,0c0,1.1,0.9,2.1,2.1,2.1h22.4c1.1,0,2.1-0.9,2.1-2.1l0,0
		C143.8,42,138.8,37,132.6,37z"/>
	<path class="st3" d="M138.8,25.4v2.5c0,3-1.6,5.7-4.2,7.2v3.6l-4.2,2.5l-4.2-2.5V35c-2.6-1.5-4.2-4.2-4.2-7.2v-2.5
		c0-4.6,3.7-8.3,8.3-8.3C135.1,17.1,138.8,20.8,138.8,25.4z"/>
	<g class="st4">
		<path class="st5" d="M130.5,17.1c-0.7,0-1.4,0.1-2.1,0.3c3.7,0.9,6.2,4.2,6.2,8v2.5c0,3.8-2.6,7.1-6.2,8c4.4,1.2,8.9-1.5,10.1-5.9
			c0.2-0.7,0.3-1.4,0.3-2.1v-2.5C138.8,20.8,135.1,17.1,130.5,17.1z"/>
	</g>
</g>
<path class="st6" d="M671.8,50.3H522.7c-3.5,0-6.3-2.8-6.3-6.3V20.2c0-3.5,2.8-6.3,6.3-6.3h149.1c3.5,0,6.3,2.8,6.3,6.3V44
	C678.1,47.4,675.3,50.3,671.8,50.3z"/>
<g>
	<path class="st1" d="M491.1,28.5c-0.2-0.8-0.4-1.6-0.5-2.3c0-0.2,0-0.4,0.1-0.6c0.2-0.9,0.4-1.8,0.6-2.7c0.3-1.2,0.6-2.5,0.9-3.8
		C470.4,14,448.6,8.8,426.7,3.7c-2.3,9.6-4.5,19.1-6.8,28.7c0.2,0.1,0.3,0.1,0.4,0.1c2.3,0.6,4.7,1.1,7,1.7c0.3,0.1,0.6,0.2,0.8,0.3
		c-0.7,0.2-1.4,0.3-2.1,0.5c-0.8,0.2-1.6,0.3-2.4,0.5c2.3,9.6,4.5,19.1,6.8,28.7c21.8-5.2,43.6-10.3,65.5-15.5
		c-0.1-0.2-0.1-0.4-0.1-0.6c-1.1-4.5-2.1-9.1-3.2-13.6C492,32.4,491.6,30.4,491.1,28.5z"/>
	<path class="st7" d="M428.2,34.3c-0.3-0.1-0.6-0.2-0.8-0.3c-2.3-0.6-4.7-1.1-7-1.7c-0.1,0-0.3-0.1-0.4-0.1
		c2.2-9.6,4.5-19.1,6.8-28.7c21.8,5.1,43.6,10.3,65.5,15.4c-0.3,1.3-0.6,2.5-0.9,3.8c-0.2,0.9-0.4,1.8-0.6,2.7c0,0.2,0,0.4-0.1,0.6
		c-0.2,0.6-0.4,1.2-0.5,1.7c-0.2,1-0.4,1.9-0.6,2.9c0,0.1-0.1,0.2-0.1,0.3c-0.3,1.2-0.6,2.4-0.9,3.6c0,0.2,0,0.3,0,0.5
		c0,0.1-0.1,0.2-0.1,0.3c-0.7,2.9-1.4,5.8-2,8.7c-0.2,0.9-0.4,1.9-0.6,2.8c-0.1,0.3-0.2,0.6-0.3,0.9c-0.7-0.1-1.4-0.2-2.1-0.3
		c-0.2-0.1-0.3-0.2-0.5-0.2c-1.1-0.3-2.3-0.5-3.4-0.8c-2.8-0.7-5.6-1.3-8.5-2c-1.6-0.4-3.1-0.8-4.7-1.1c-4.4-1-8.8-2.1-13.2-3.1
		c-1.5-0.3-2.9-0.7-4.4-1c-0.1,0-0.2-0.1-0.2-0.1c-3.8-0.9-7.6-1.8-11.4-2.7c-0.2-0.1-0.5-0.1-0.7-0.2c-1.2-0.3-2.3-0.5-3.5-0.7
		C431.3,35,429.7,34.7,428.2,34.3z M489.5,20.6c-20.4-4.8-40.8-9.6-61.2-14.4c0,0.1-0.1,0.2-0.1,0.3c-1.2,5.2-2.5,10.5-3.7,15.7
		c-0.6,2.7-1.3,5.4-1.9,8.1c-0.1,0.3,0,0.4,0.3,0.5c2.1,0.5,4.2,1,6.3,1.5c4.5,1.1,9.1,2.2,13.6,3.2c4.9,1.2,9.8,2.3,14.7,3.4
		c4.1,1,8.2,1.9,12.3,2.9c4.4,1,8.9,2.1,13.3,3.1c0.5,0.1,0.7,0,0.8-0.5c1.4-5.8,2.7-11.6,4.1-17.4C488.5,24.9,489,22.8,489.5,20.6z
		"/>
	<path class="st8" d="M491.1,28.5c0.5,2,1,3.9,1.4,5.9c1.1,4.5,2.2,9.1,3.2,13.6c0,0.2,0.1,0.4,0.1,0.6
		c-21.8,5.2-43.6,10.3-65.5,15.5c-2.3-9.6-4.5-19.1-6.8-28.7c0.8-0.2,1.6-0.3,2.4-0.5c0.5,0.1,1.1,0.3,1.6,0.4
		c0.9,0.2,1.9,0.5,2.8,0.7c-1.4,0.3-2.8,0.7-4.2,1c1.9,8.2,3.9,16.3,5.8,24.4c0.1,0,0.2,0,0.3-0.1c4.3-1,8.6-2,12.9-3.1
		c4.3-1,8.7-2,13-3.1c5.3-1.2,10.5-2.5,15.8-3.7c2.4-0.6,4.8-1.1,7.2-1.7c1.2-0.3,2.4-0.6,3.7-0.9c0.5-0.1,1-0.3,1.5-0.4
		c0.1,0,0.1,0,0.2,0c2.1-0.5,4.2-1,6.3-1.5c0.2-0.1,0.3-0.2,0.3-0.4c-0.1-0.4-0.2-0.9-0.3-1.3c-0.9-4-1.9-8-2.8-12
		c0-0.2,0-0.3-0.1-0.5c0.1-0.1,0.1-0.2,0.2-0.3C490.5,31.2,490.8,29.8,491.1,28.5z"/>
	<path class="st9" d="M491.1,28.5c-0.3,1.3-0.6,2.7-1,4c0,0.1-0.1,0.2-0.2,0.3c-0.2-0.7-0.4-1.4-0.5-2.1c0.2-1,0.4-1.9,0.6-2.9
		c0.1-0.6,0.3-1.2,0.5-1.7C490.7,26.9,490.9,27.7,491.1,28.5z"/>
	<path class="st9" d="M430.4,36c-0.9-0.2-1.9-0.5-2.8-0.7c-0.5-0.1-1.1-0.3-1.6-0.4c0.7-0.2,1.4-0.3,2.1-0.5
		c1.5,0.4,3.1,0.7,4.6,1.1c-0.6,0.2-1.3,0.3-1.9,0.5C430.7,35.9,430.6,36,430.4,36z"/>
	<path class="st10" d="M489.5,20.6c-0.5,2.2-1,4.3-1.5,6.4c-1.4,5.8-2.7,11.6-4.1,17.4c-0.1,0.5-0.3,0.6-0.8,0.5
		c-4.4-1.1-8.9-2.1-13.3-3.1c-4.1-1-8.2-1.9-12.3-2.9c-4.9-1.2-9.8-2.3-14.7-3.4c-4.5-1.1-9.1-2.2-13.6-3.2c-2.1-0.5-4.2-1-6.3-1.5
		c-0.3-0.1-0.4-0.2-0.3-0.5c0.7-2.7,1.3-5.4,1.9-8.1c1.2-5.2,2.5-10.5,3.7-15.7c0-0.1,0.1-0.1,0.1-0.3
		C448.7,11,469.1,15.8,489.5,20.6z M449.2,35c0,0,0.1,0,0.1,0.1l0,0C449.3,35,449.3,35,449.2,35c-0.1-0.2-0.3-0.3-0.4-0.5
		c-1.3-1-2.4-2.3-3.1-3.8c-1.4-3-1.6-6.1-0.4-9.2c1.1-2.9,3.1-5,6-6.2c0.9-0.4,1.9-0.7,2.9-1c-8.2-1.9-16.3-3.8-24.5-5.8
		c-1.7,7-3.3,13.9-4.9,20.8c0.5,0.1,1,0.2,1.5,0.4c2.9,0.7,5.7,1.4,8.6,2c3.6,0.8,7.1,1.7,10.7,2.5C446.8,34.4,448,34.7,449.2,35z
		 M457.7,37c0.2,0.1,0.3,0.1,0.5,0.1c2.8,0.7,5.6,1.3,8.5,2c5.1,1.2,10.1,2.4,15.2,3.6c0.4,0.1,0.5,0,0.6-0.4c0.4-1.7,0.8-3.3,1.2-5
		c1.1-4.5,2.1-9,3.2-13.5c0.1-0.6,0.3-1.2,0.4-1.8c-8.2-1.9-16.4-3.9-24.6-5.8c4.2,3.5,5.9,7.8,4.2,13
		C465.5,33.6,462.3,36.1,457.7,37z M455.5,32.8c0.7,0,1.4,0.1,2,0c2.6-0.3,4.2-2.6,3.7-5.1c-0.3-1.3-1.2-2.1-2.3-2.7
		c-1.1-0.5-2.2-1-3.3-1.4c-0.6-0.2-1.1-0.5-1.6-0.9c-0.9-0.7-0.7-2,0.3-2.5c0.3-0.1,0.6-0.2,0.9-0.2c2-0.1,3.7,0.6,4.8,2.4
		c0.8-0.2,1.5-0.3,2.3-0.5c0-0.1,0-0.2,0-0.2c-0.4-1.5-1.4-2.6-2.8-3.2c-0.4-0.2-0.6-0.4-0.4-0.9c0.1-0.3,0.2-0.7,0.3-1.1
		c-0.9-0.2-1.7-0.4-2.5-0.6c-0.1,0.6-0.3,1.1-0.4,1.6c-0.8,0-1.5,0-2.2,0.2c-2.3,0.3-3.6,2.1-3.4,4.4c0.1,1.4,1.1,2.3,2.2,2.9
		c0.9,0.4,1.8,0.7,2.7,1.2c0.8,0.4,1.6,0.8,2.3,1.3c0.8,0.7,0.7,1.9-0.2,2.4c-0.4,0.3-1,0.5-1.5,0.5c-2.4,0-4.3-0.8-5.3-3.1
		c-0.8,0.1-1.6,0.3-2.5,0.4c0.5,2.5,2.2,3.8,4.4,4.6c-0.1,0.6-0.3,1.2-0.4,1.9c0.9,0.2,1.7,0.4,2.5,0.6
		C455.2,34.1,455.4,33.5,455.5,32.8z"/>
	<path class="st9" d="M437,36.3c3.8,0.9,7.6,1.8,11.4,2.7c0.1,0,0.2,0.1,0.2,0.1c0,0.3-0.1,0.6-0.1,0.9c0,0.1-0.1,0.1-0.1,0.2
		c-1.1-0.3-2.2-0.5-3.3-0.8c-2.7-0.6-5.4-1.3-8.1-1.9c-0.7-0.2-1.3-0.4-1.9-0.6c0.2-0.1,0.4-0.1,0.6-0.2
		C436.1,36.6,436.6,36.5,437,36.3z"/>
	<path class="st9" d="M470.9,44.3c2.8,0.7,5.6,1.3,8.5,2c1.1,0.3,2.3,0.5,3.4,0.8c0.2,0,0.3,0.1,0.5,0.2c-0.2,0.1-0.3,0.1-0.5,0.2
		c-0.5,0.1-1,0.3-1.5,0.4c-0.1,0-0.2,0-0.3,0c-0.1,0-0.1-0.1-0.2-0.1c-2.1-0.5-4.2-1-6.3-1.5c-1.3-0.3-2.5-0.6-3.8-0.9
		C470.8,45.1,470.9,44.7,470.9,44.3z"/>
	<path class="st11" d="M453.1,40.1c4.4,1,8.8,2.1,13.2,3.1c0,0.4,0.1,0.9,0.1,1.3c-0.1-0.1-0.2-0.2-0.3-0.2
		c-0.8-0.2-1.7-0.4-2.5-0.6l-0.1-0.1c-0.2-0.6-0.7-0.8-1.2-0.9c-0.9-0.1-1.9,0-2.9,0c-0.2,0-0.3,0-0.5,0l-0.1-0.1
		c-1.3-0.3-2.6-0.6-3.9-0.9c-0.3-0.1-0.7-0.1-1.1-0.1c-0.1-0.1-0.2-0.2-0.3-0.3C453.3,40.8,453.2,40.5,453.1,40.1z"/>
	<path class="st9" d="M485.6,46.8c0.2-0.9,0.4-1.9,0.6-2.8c0.7-2.9,1.4-5.8,2-8.7c0-0.1,0.1-0.2,0.1-0.3c0.1,0.2,0.1,0.3,0.2,0.5
		c0.1,0.5,0.3,1,0.4,1.4c0,0.1,0,0.2,0,0.3c-0.4,1.7-0.8,3.4-1.2,5.1c-0.3,1.2-0.6,2.5-0.8,3.7c0,0.1,0.1,0.2,0.1,0.3
		c-0.1,0-0.2,0.1-0.3,0.1C486.4,46.7,486,46.7,485.6,46.8z"/>
	<path class="st12" d="M485.6,46.8c0.4-0.1,0.7-0.1,1.1-0.2c-0.1,0.7-0.2,1.3-0.3,2c-0.5,0.1-1,0.3-1.5,0.4
		c-0.2-0.1-0.3-0.2-0.5-0.3c-1-0.3-2.1-0.5-3.1-0.7c0.5-0.1,1-0.3,1.5-0.4c0.2,0,0.3-0.1,0.5-0.2c0.7,0.1,1.4,0.2,2.1,0.3
		C485.4,47.4,485.5,47.1,485.6,46.8z"/>
	<path class="st12" d="M453.1,40.1c0.1,0.4,0.3,0.7,0.4,1.1c-0.1,0-0.3,0.1-0.4,0.1c-1.3-0.3-2.7-0.6-4-0.9
		c-0.2-0.1-0.4-0.3-0.6-0.4c0-0.3,0.1-0.6,0.1-0.9C450.1,39.4,451.6,39.8,453.1,40.1z"/>
	<path class="st12" d="M466.3,44.5c0-0.4-0.1-0.9-0.1-1.3c1.6,0.4,3.1,0.8,4.7,1.1c-0.1,0.4-0.1,0.7-0.2,1.1h-0.1
		c-1.1-0.3-2.3-0.5-3.4-0.8c-0.3-0.1-0.6-0.2-0.9,0.1C466.3,44.7,466.3,44.6,466.3,44.5z"/>
	<path class="st12" d="M437,36.3c-0.4,0.1-0.9,0.3-1.3,0.4c-0.2,0.1-0.4,0.1-0.6,0.2c-0.3,0-0.5,0.1-0.8,0.1
		c-0.1-0.1-0.1-0.2-0.2-0.2c-0.7-0.2-1.4-0.3-2.2-0.5c-0.4-0.1-0.7-0.3-1-0.4c0.6-0.2,1.3-0.3,1.9-0.5c1.2,0.2,2.3,0.5,3.5,0.7
		C436.5,36.2,436.8,36.3,437,36.3z"/>
	<path class="st12" d="M489,37c-0.1-0.5-0.3-1-0.4-1.4c-0.1-0.2-0.1-0.3-0.2-0.5c0-0.2,0-0.3,0-0.5c0.3-1.2,0.6-2.4,0.9-3.6
		c0-0.1,0.1-0.2,0.1-0.3c0.2,0.7,0.4,1.4,0.5,2.1c0,0.2,0,0.3,0.1,0.5c-0.1,0.1-0.1,0.3-0.2,0.4C489.6,34.8,489.3,35.9,489,37z"/>
	<path class="st10" d="M430.9,35.9c0.3,0.1,0.7,0.3,1,0.4c0.7,0.2,1.4,0.3,2.2,0.5c0.1,0,0.1,0.1,0.2,0.2c-0.1,0-0.2,0.1-0.3,0.1
		c-1.8,0.4-3.6,0.9-5.5,1.3c0.5,1.9,0.9,3.9,1.4,5.8c1.1,4.7,2.2,9.3,3.3,14c0.3,1.2,0.2,1,1.3,0.8c3.8-0.9,7.5-1.8,11.3-2.7
		c3.5-0.8,7.1-1.7,10.6-2.5c0.5-0.1,1.1-0.3,1.6-0.4c-1.6-0.3-3-0.8-4.3-1.7c-3.4-2.2-5.2-5.3-5.4-9.3c0-0.7,0.1-1.5,0.1-2.2
		c0-0.1,0.1-0.1,0.1-0.2c0.2,0.1,0.4,0.3,0.6,0.4c1.3,0.3,2.7,0.6,4,0.9c0.1,0,0.2-0.1,0.4-0.1c0.1,0.1,0.2,0.2,0.3,0.3
		c0.4,0.3,0.7,0.6,1.1,0.8c1.3,0.6,2.6,0.5,4,0.3c0.2,0,0.3,0,0.5,0c1,0.3,2,0.6,3.1,0.8c0.3,0.1,0.6,0.1,1,0.1l0.1,0.1
		c0.2,1.1-0.3,1.8-1.2,2.3c-1,0.6-2.2,0.9-3.4,0.8c-1.1-0.1-2-0.4-2.8-1.3c-0.7,0.5-1.4,1-2.1,1.5c1.6,2,3.7,2.4,6,2.2
		c0.2,0.6,0.3,1.2,0.5,1.9c0.8-0.2,1.7-0.4,2.5-0.6c-0.2-0.7-0.3-1.3-0.4-1.9c2.7-1.4,3.3-2.1,3.7-3.7l0,0v-0.1c0,0,0-0.1,0.1-0.1
		c0.3-0.3,0.6-0.2,0.9-0.1c1.1,0.3,2.3,0.6,3.4,0.8c-0.5,1.6-1.3,3-2.4,4.2c-0.5,0.6-1.1,1.1-1.7,1.7c0,0-0.1,0-0.1,0.1l0,0
		c0,0,0.1,0,0.1-0.1c0.2,0,0.3,0,0.5-0.1c2.8-0.7,5.6-1.3,8.4-2c1.9-0.4,3.7-0.9,5.6-1.3c0.1,0,0.2,0,0.3,0c1,0.2,2.1,0.5,3.1,0.7
		c0.2,0,0.3,0.2,0.5,0.3c-1.2,0.3-2.4,0.6-3.7,0.9c-2.4,0.6-4.8,1.1-7.2,1.7c-5.3,1.2-10.5,2.5-15.8,3.7c-4.3,1-8.7,2-13,3.1
		c-4.3,1-8.6,2-12.9,3.1c-0.1,0-0.2,0-0.3,0.1c-1.9-8.1-3.8-16.2-5.8-24.4c1.4-0.3,2.8-0.7,4.2-1C430.6,36,430.7,35.9,430.9,35.9z"
		/>
	<path class="st10" d="M489,37c0.3-1.1,0.5-2.2,0.8-3.3c0-0.1,0.1-0.3,0.2-0.4c0.9,4,1.9,8,2.8,12c0.1,0.4,0.2,0.9,0.3,1.3
		c0.1,0.3,0,0.4-0.3,0.4c-2.1,0.5-4.2,1-6.3,1.5c-0.1,0-0.1,0-0.2,0c0.1-0.7,0.2-1.3,0.3-2c0.1,0,0.2-0.1,0.3-0.1
		c1.3-0.3,2.6-0.6,3.9-0.9c-0.7-2.8-1.3-5.5-2-8.2C489,37.2,489,37.1,489,37z"/>
	<path class="st6" d="M449.2,35c-1.2-0.3-2.5-0.5-3.7-0.8c-3.6-0.8-7.1-1.7-10.7-2.5c-2.9-0.7-5.7-1.4-8.6-2c-0.5-0.1-1-0.2-1.5-0.4
		c1.6-6.9,3.2-13.8,4.9-20.8c8.2,1.9,16.4,3.9,24.5,5.8c-1,0.3-2,0.6-2.9,1c-2.8,1.3-4.8,3.3-6,6.2c-1.2,3.1-1.1,6.2,0.4,9.2
		c0.7,1.5,1.8,2.8,3.1,3.8C449,34.7,449.1,34.8,449.2,35L449.2,35z M431.9,20.8c0,2.1,1.6,3.8,3.7,3.7c2.2,0,3.7-1.6,3.8-3.7
		c0-2.1-1.5-3.7-3.8-3.8C433.5,17.1,431.9,18.8,431.9,20.8z"/>
	<path class="st6" d="M457.7,37c4.5-0.9,7.7-3.4,9.1-7.8c1.7-5.2,0-9.5-4.2-13c8.2,1.9,16.4,3.9,24.6,5.8c-0.1,0.6-0.3,1.2-0.4,1.8
		c-1.1,4.5-2.1,9-3.2,13.5c-0.4,1.7-0.8,3.3-1.2,5c-0.1,0.4-0.2,0.5-0.6,0.4c-5.1-1.2-10.1-2.4-15.2-3.6c-2.8-0.7-5.6-1.3-8.5-2
		C458.1,37.1,457.9,37.1,457.7,37z M475.6,26.5c-1.9-0.1-3.7,1.7-3.7,3.7s1.7,3.8,3.7,3.7c2.1,0,3.8-1.6,3.8-3.8
		C479.4,28.2,477.5,26.4,475.6,26.5z"/>
	<path class="st13" d="M455.5,32.8c-0.2,0.7-0.3,1.3-0.5,2c-0.8-0.2-1.6-0.4-2.5-0.6c0.1-0.6,0.3-1.2,0.4-1.9
		c-2.2-0.8-3.9-2.1-4.4-4.6c0.9-0.1,1.7-0.3,2.5-0.4c1,2.4,2.9,3.2,5.3,3.1c0.5,0,1.1-0.2,1.5-0.5c0.9-0.6,1-1.8,0.2-2.4
		c-0.7-0.5-1.5-0.9-2.3-1.3c-0.9-0.4-1.9-0.7-2.7-1.2c-1.2-0.6-2.1-1.4-2.2-2.9c-0.2-2.3,1.1-4,3.4-4.4c0.7-0.1,1.5-0.1,2.2-0.2
		c0.1-0.5,0.3-1,0.4-1.6c0.8,0.2,1.6,0.4,2.5,0.6c-0.1,0.4-0.1,0.8-0.3,1.1c-0.2,0.5,0,0.7,0.4,0.9c1.4,0.6,2.4,1.6,2.8,3.2
		c0,0.1,0,0.1,0,0.2c-0.8,0.2-1.5,0.3-2.3,0.5c-1.1-1.9-2.8-2.5-4.8-2.4c-0.3,0-0.6,0.1-0.9,0.2c-1.1,0.5-1.2,1.8-0.3,2.5
		c0.5,0.4,1.1,0.6,1.6,0.9c1.1,0.5,2.3,0.9,3.3,1.4c1.1,0.6,2,1.4,2.3,2.7c0.5,2.5-1.2,4.8-3.7,5.1
		C456.9,32.9,456.3,32.8,455.5,32.8z"/>
	<path class="st6" d="M449.3,35c0,0,0.1,0,0.1,0.1C449.4,35,449.4,35,449.3,35L449.3,35C449.2,35,449.3,35,449.3,35z"/>
	<path class="st6" d="M448.4,40.2c0,0.7-0.1,1.5-0.1,2.2c0.2,4,2,7.1,5.4,9.3c1.3,0.8,2.7,1.4,4.3,1.7c-0.5,0.1-1.1,0.3-1.6,0.4
		c-3.5,0.8-7.1,1.7-10.6,2.5c-3.8,0.9-7.5,1.8-11.3,2.7c-1.1,0.3-1,0.5-1.3-0.8c-1.1-4.7-2.2-9.3-3.3-14c-0.5-1.9-0.9-3.8-1.4-5.8
		c1.8-0.4,3.7-0.9,5.5-1.3c0.1,0,0.2-0.1,0.3-0.1c0.3,0,0.5-0.1,0.8-0.1c0.6,0.2,1.3,0.4,1.9,0.6c2.7,0.6,5.4,1.3,8.1,1.9
		C446.2,39.7,447.3,40,448.4,40.2z M443.1,46.9c0-2.1-1.6-3.8-3.7-3.8s-3.8,1.7-3.8,3.7c0,2.1,1.7,3.8,3.8,3.8
		C441.4,50.6,443.1,48.9,443.1,46.9z"/>
	<path class="st6" d="M481,47.9c-1.9,0.4-3.7,0.9-5.6,1.3c-2.8,0.7-5.6,1.3-8.4,2c-0.2,0-0.3,0-0.5,0.1l0,0c0.6-0.6,1.2-1.1,1.7-1.7
		c1.1-1.2,1.9-2.6,2.4-4.2h0.1c1.3,0.3,2.5,0.6,3.8,0.9c2.1,0.5,4.2,1,6.3,1.5C480.9,47.8,481,47.9,481,47.9z"/>
	<path class="st13" d="M466.3,44.7C466.3,44.8,466.3,44.8,466.3,44.7c-0.1,0.1-0.1,0.2-0.1,0.2c-0.3,1.6-1,2.3-3.7,3.7
		c0.1,0.6,0.3,1.2,0.4,1.9c-0.8,0.2-1.6,0.4-2.5,0.6c-0.2-0.6-0.3-1.2-0.5-1.9c-2.3,0.2-4.4-0.2-6-2.2c0.7-0.5,1.4-1,2.1-1.5
		c0.7,0.9,1.7,1.2,2.8,1.3c1.2,0.1,2.3-0.2,3.4-0.8c0.9-0.5,1.4-1.3,1.2-2.3c0.8,0.2,1.7,0.4,2.5,0.6c0.1,0,0.2,0.1,0.3,0.2
		C466.3,44.6,466.3,44.7,466.3,44.7z"/>
	<path class="st14" d="M458.8,42.7c-1.4,0.2-2.7,0.3-4-0.3c-0.4-0.2-0.7-0.5-1.1-0.8c0.4,0,0.7,0,1.1,0.1c1.3,0.3,2.6,0.6,3.9,0.9
		C458.8,42.6,458.8,42.7,458.8,42.7z"/>
	<path class="st12" d="M463.4,43.6c-0.3,0-0.6,0-1-0.1c-1-0.3-2-0.5-3.1-0.8c1,0,1.9-0.1,2.9,0C462.7,42.7,463.2,43,463.4,43.6z"/>
	<path class="st6" d="M489,37.3c0.7,2.7,1.3,5.4,2,8.2c-1.3,0.3-2.6,0.6-3.9,0.9c0-0.1-0.1-0.2-0.1-0.3c0.3-1.2,0.5-2.5,0.8-3.7
		C488.2,40.7,488.6,39,489,37.3z"/>
	<path class="st6" d="M466.5,51.3c0,0-0.1,0-0.1,0.1l0,0C466.4,51.3,466.5,51.3,466.5,51.3L466.5,51.3z"/>
	<path class="st11" d="M466.2,44.9L466.2,44.9C466.2,44.9,466.3,44.9,466.2,44.9C466.3,44.9,466.2,44.9,466.2,44.9z"/>
	<path class="st10" d="M431.9,20.8c0-2,1.7-3.8,3.7-3.7c2.3,0,3.8,1.7,3.8,3.8s-1.5,3.7-3.8,3.7C433.5,24.6,431.9,22.9,431.9,20.8z"
		/>
	<path class="st10" d="M475.6,26.5c2-0.1,3.8,1.6,3.8,3.7c0,2.2-1.6,3.7-3.8,3.8c-2,0-3.7-1.7-3.7-3.7
		C471.8,28.2,473.7,26.5,475.6,26.5z"/>
	<path class="st10" d="M443.1,46.9c0,2-1.7,3.7-3.7,3.7c-2.1,0-3.8-1.7-3.8-3.8c0-2,1.7-3.7,3.8-3.7
		C441.4,43.1,443.1,44.8,443.1,46.9z"/>
</g>
<g>
	<path class="st1" d="M527,37v-1.8l1.6-1.5c2.7-2.4,4-3.8,4.1-5.3c0-1-0.6-1.8-2-1.8c-1.1,0-2,0.5-2.7,1l-0.8-2.1
		c0.9-0.7,2.4-1.3,4.1-1.3c2.8,0,4.4,1.6,4.4,3.9c0,2.1-1.5,3.7-3.3,5.3l-1.1,1v0h4.7V37H527z"/>
	<path class="st1" d="M545.9,27h-4.8l-0.3,1.9c0.3,0,0.5,0,0.8,0c1.2,0,2.4,0.3,3.3,0.9c0.9,0.6,1.5,1.7,1.5,3.1
		c0,2.3-2,4.4-5.3,4.4c-1.5,0-2.8-0.3-3.5-0.7l0.5-2.2c0.6,0.3,1.7,0.6,2.8,0.6c1.2,0,2.5-0.6,2.5-1.9c0-1.3-1-2.1-3.5-2.1
		c-0.7,0-1.2,0-1.7,0.1l0.8-6.5h6.8V27z"/>
	<path class="st1" d="M551.7,38.7v-1.8c-1.3-0.1-2.5-0.4-3.2-0.8l0.6-2.2c0.8,0.4,1.9,0.8,3.2,0.8c1.1,0,1.8-0.4,1.8-1.2
		c0-0.7-0.6-1.2-2-1.7c-2-0.7-3.4-1.6-3.4-3.5c0-1.7,1.2-3,3.2-3.4v-1.8h1.9v1.7c1.3,0.1,2.1,0.3,2.8,0.6l-0.6,2.2
		c-0.5-0.2-1.4-0.6-2.7-0.6c-1.2,0-1.6,0.5-1.6,1.1c0,0.6,0.7,1,2.3,1.6c2.3,0.8,3.2,1.9,3.2,3.6c0,1.7-1.2,3.1-3.4,3.5v1.9H551.7z"
		/>
	<path class="st1" d="M572.6,36.6c-0.5,0.3-1.7,0.6-3.3,0.6c-4.4,0-6.7-2.8-6.7-6.4c0-4.4,3.1-6.8,7-6.8c1.5,0,2.7,0.3,3.2,0.6
		l-0.6,2.3c-0.6-0.2-1.4-0.5-2.4-0.5c-2.3,0-4.1,1.4-4.1,4.3c0,2.6,1.5,4.2,4.1,4.2c0.9,0,1.9-0.2,2.4-0.4L572.6,36.6z"/>
	<path class="st1" d="M583.2,32.2c0,3.4-2.4,5-4.9,5c-2.7,0-4.8-1.8-4.8-4.8c0-3,2-4.9,5-4.9C581.3,27.5,583.2,29.4,583.2,32.2z
		 M576.5,32.3c0,1.6,0.7,2.8,1.9,2.8c1.1,0,1.9-1.1,1.9-2.8c0-1.4-0.5-2.8-1.9-2.8C577,29.5,576.5,30.9,576.5,32.3z"/>
	<path class="st1" d="M585,30.6c0-1.2,0-2.2-0.1-3h2.4l0.1,1.3h0.1c0.4-0.6,1.2-1.5,2.8-1.5c1.2,0,2.2,0.6,2.6,1.6h0
		c0.3-0.5,0.8-0.9,1.2-1.1c0.5-0.3,1.1-0.5,1.8-0.5c1.8,0,3.1,1.3,3.1,4V37h-2.8v-5.1c0-1.4-0.4-2.1-1.4-2.1c-0.7,0-1.1,0.5-1.3,1
		c-0.1,0.2-0.1,0.5-0.1,0.7V37h-2.8v-5.2c0-1.2-0.4-2-1.3-2c-0.7,0-1.2,0.6-1.4,1c-0.1,0.2-0.1,0.5-0.1,0.7V37H585V30.6z"/>
	<path class="st1" d="M601.4,30.6c0-1.2,0-2.2-0.1-3h2.4l0.1,1.3h0.1c0.4-0.6,1.2-1.5,2.8-1.5c1.2,0,2.2,0.6,2.6,1.6h0
		c0.3-0.5,0.8-0.9,1.2-1.1c0.5-0.3,1.1-0.5,1.8-0.5c1.8,0,3.1,1.3,3.1,4V37h-2.8v-5.1c0-1.4-0.4-2.1-1.4-2.1c-0.7,0-1.1,0.5-1.3,1
		c-0.1,0.2-0.1,0.5-0.1,0.7V37h-2.8v-5.2c0-1.2-0.4-2-1.3-2c-0.7,0-1.2,0.6-1.4,1c-0.1,0.2-0.1,0.5-0.1,0.7V37h-2.8V30.6z"/>
	<path class="st1" d="M620.8,25.1c0,0.8-0.6,1.5-1.6,1.5c-0.9,0-1.5-0.6-1.5-1.5c0-0.8,0.6-1.5,1.5-1.5S620.8,24.2,620.8,25.1z
		 M617.8,37v-9.3h2.9V37H617.8z"/>
	<path class="st1" d="M623,34.5c0.5,0.3,1.6,0.7,2.5,0.7c0.9,0,1.2-0.3,1.2-0.8c0-0.5-0.3-0.7-1.4-1.1c-1.9-0.6-2.7-1.7-2.7-2.8
		c0-1.7,1.5-3.1,3.8-3.1c1.1,0,2.1,0.2,2.6,0.5l-0.5,2c-0.4-0.2-1.2-0.5-2-0.5c-0.7,0-1.1,0.3-1.1,0.8c0,0.4,0.4,0.7,1.5,1.1
		c1.8,0.6,2.5,1.5,2.5,2.9c0,1.7-1.4,3-4,3c-1.2,0-2.3-0.3-3-0.6L623,34.5z"/>
	<path class="st1" d="M631.3,34.5c0.5,0.3,1.6,0.7,2.5,0.7c0.9,0,1.2-0.3,1.2-0.8c0-0.5-0.3-0.7-1.4-1.1c-1.9-0.6-2.7-1.7-2.7-2.8
		c0-1.7,1.5-3.1,3.8-3.1c1.1,0,2.1,0.2,2.6,0.5l-0.5,2c-0.4-0.2-1.2-0.5-2-0.5c-0.7,0-1.1,0.3-1.1,0.8c0,0.4,0.4,0.7,1.5,1.1
		c1.8,0.6,2.5,1.5,2.5,2.9c0,1.7-1.4,3-4,3c-1.2,0-2.3-0.3-3-0.6L631.3,34.5z"/>
	<path class="st1" d="M642.6,25.1c0,0.8-0.6,1.5-1.6,1.5c-0.9,0-1.5-0.6-1.5-1.5c0-0.8,0.6-1.5,1.5-1.5S642.6,24.2,642.6,25.1z
		 M639.6,37v-9.3h2.9V37H639.6z"/>
	<path class="st1" d="M654.1,32.2c0,3.4-2.4,5-4.9,5c-2.7,0-4.8-1.8-4.8-4.8c0-3,2-4.9,5-4.9C652.2,27.5,654.1,29.4,654.1,32.2z
		 M647.3,32.3c0,1.6,0.7,2.8,1.9,2.8c1.1,0,1.9-1.1,1.9-2.8c0-1.4-0.5-2.8-1.9-2.8C647.8,29.5,647.3,30.9,647.3,32.3z"/>
	<path class="st1" d="M655.9,30.6c0-1.2,0-2.2-0.1-3h2.5l0.1,1.3h0.1c0.4-0.6,1.3-1.5,2.9-1.5c1.9,0,3.3,1.3,3.3,4V37h-2.9v-5.2
		c0-1.2-0.4-2-1.5-2c-0.8,0-1.3,0.6-1.5,1.1c-0.1,0.2-0.1,0.5-0.1,0.7V37h-2.9V30.6z"/>
</g>
</svg>
